<svg width="517" height="373" viewBox="0 0 517 373" fill="none" xmlns="http://www.w3.org/2000/svg">
<g clip-path="url(#clip0)">
<path opacity="0.1" d="M5.58423 202.783C13.765 237.777 31.0831 268.027 58.4482 282.708C115.332 313.18 243.609 297.46 339.342 279.407C387.717 270.315 431.628 245.193 464.004 208.088L5.58423 202.783Z" fill="#6C63FF"/>
<path opacity="0.1" d="M507.622 38.0645H455.093C453.889 38.0645 452.735 37.586 451.884 36.7343C451.033 35.8825 450.555 34.7273 450.555 33.5228C450.555 32.3182 451.033 31.163 451.884 30.3113C452.735 29.4596 453.889 28.9811 455.093 28.9811H464.174C462.995 28.9431 461.877 28.4477 461.056 27.5996C460.236 26.7516 459.777 25.6175 459.777 24.437C459.777 23.2566 460.236 22.1224 461.056 21.2744C461.877 20.4264 462.995 19.931 464.174 19.893H457.689C456.51 19.8549 455.393 19.3595 454.572 18.5115C453.752 17.6635 453.293 16.5293 453.293 15.3489C453.293 14.1685 453.752 13.0343 454.572 12.1863C455.393 11.3382 456.51 10.8428 457.689 10.8048H485.106C479.022 7.9751 471.911 5.96128 463.717 4.90485C388.959 -4.70206 362.267 1.65539 352.852 8.2062C341.236 16.2709 328.277 22.2039 314.427 25.0619C268.302 34.5839 182.041 46.0443 103.857 21.3927C64.9984 9.13057 36.1207 29.8441 18.8073 64.4422H516.741C516.09 54.3873 514.144 45.1058 510.572 36.975C509.751 37.681 508.704 38.0677 507.622 38.0645Z" fill="#6C63FF"/>
<path opacity="0.1" d="M1.12623 129.743C-0.89131 150.094 -0.206769 170.623 3.16199 190.794L464.357 207.678C477.197 192.897 487.976 176.444 496.402 158.766L1.12623 129.743ZM183.535 173.292H174.454C175.657 173.292 176.812 173.771 177.663 174.623C178.514 175.474 178.992 176.629 178.992 177.834C178.992 179.039 178.514 180.194 177.663 181.045C176.812 181.897 175.657 182.376 174.454 182.376H121.924C120.721 182.376 119.567 181.897 118.716 181.045C117.865 180.194 117.386 179.039 117.386 177.834C117.386 176.629 117.865 175.474 118.716 174.623C119.567 173.771 120.721 173.292 121.924 173.292H131.005C129.826 173.254 128.709 172.759 127.888 171.911C127.068 171.063 126.609 169.929 126.609 168.748C126.609 167.568 127.068 166.434 127.888 165.586C128.709 164.738 129.826 164.242 131.005 164.204H124.521C123.342 164.166 122.224 163.671 121.404 162.823C120.583 161.975 120.125 160.841 120.125 159.66C120.125 158.48 120.583 157.345 121.404 156.497C122.224 155.649 123.342 155.154 124.521 155.116H177.05C178.229 155.154 179.347 155.649 180.168 156.497C180.988 157.345 181.447 158.48 181.447 159.66C181.447 160.841 180.988 161.975 180.168 162.823C179.347 163.671 178.229 164.166 177.05 164.204H183.535C184.714 164.242 185.831 164.738 186.652 165.586C187.472 166.434 187.931 167.568 187.931 168.748C187.931 169.929 187.472 171.063 186.652 171.911C185.831 172.759 184.714 173.254 183.535 173.292Z" fill="#6C63FF"/>
<path opacity="0.1" d="M516.764 64.7441L13.2513 77.0062C7.12518 92.7631 3.08663 110.567 1.20166 129.04H507.943C511.25 118.194 513.697 107.103 515.261 95.871C516.769 85.019 517.372 74.5208 516.764 64.7441ZM103.424 104.907H94.3427C94.9387 104.907 95.5288 105.025 96.0794 105.253C96.6299 105.481 97.1302 105.816 97.5516 106.238C97.973 106.659 98.3073 107.16 98.5353 107.711C98.7634 108.262 98.8808 108.853 98.8808 109.449C98.8808 110.045 98.7634 110.636 98.5353 111.187C98.3073 111.738 97.973 112.239 97.5516 112.66C97.1302 113.082 96.6299 113.417 96.0794 113.645C95.5288 113.873 94.9387 113.991 94.3427 113.991H41.8133C40.6098 113.991 39.4555 113.512 38.6044 112.66C37.7534 111.809 37.2753 110.654 37.2753 109.449C37.2753 108.244 37.7534 107.089 38.6044 106.238C39.4555 105.386 40.6098 104.907 41.8133 104.907H50.8942C49.7153 104.869 48.5974 104.374 47.7769 103.526C46.9564 102.678 46.4977 101.544 46.4977 100.363C46.4977 99.1828 46.9564 98.0486 47.7769 97.2006C48.5974 96.3526 49.7153 95.8572 50.8942 95.8192H44.4099C43.231 95.7812 42.1131 95.2857 41.2926 94.4377C40.4721 93.5897 40.0134 92.4555 40.0134 91.2751C40.0134 90.0947 40.4721 88.9605 41.2926 88.1125C42.1131 87.2645 43.231 86.7691 44.4099 86.731H96.9393C98.1181 86.7691 99.236 87.2645 100.057 88.1125C100.877 88.9605 101.336 90.0947 101.336 91.2751C101.336 92.4555 100.877 93.5897 100.057 94.4377C99.236 95.2857 98.1181 95.7812 96.9393 95.8192H103.424C104.602 95.8572 105.72 96.3526 106.541 97.2006C107.361 98.0486 107.82 99.1828 107.82 100.363C107.82 101.544 107.361 102.678 106.541 103.526C105.72 104.374 104.602 104.869 103.424 104.907Z" fill="#6C63FF"/>
<path opacity="0.1" d="M265.602 373C356.388 373 429.985 369.013 429.985 364.096C429.985 359.178 356.388 355.192 265.602 355.192C174.815 355.192 101.218 359.178 101.218 364.096C101.218 369.013 174.815 373 265.602 373Z" fill="#6C63FF"/>
<path d="M402.069 298.621C402.069 298.621 404.656 302.012 400.872 307.11C397.088 312.208 393.968 316.542 395.217 319.735C395.217 319.735 400.924 310.232 405.584 310.1C410.245 309.968 407.177 304.337 402.069 298.621Z" fill="#6C63FF"/>
<path opacity="0.1" d="M402.069 298.621C402.292 298.949 402.469 299.306 402.596 299.682C407.13 305.016 409.543 309.991 405.188 310.114C401.126 310.232 396.258 317.495 395.094 319.33C395.131 319.472 395.177 319.612 395.231 319.749C395.231 319.749 400.938 310.246 405.598 310.114C410.259 309.982 407.177 304.337 402.069 298.621Z" fill="black"/>
<path d="M406.88 302.941C406.88 304.134 406.748 305.101 406.583 305.101C406.418 305.101 406.282 304.134 406.282 302.941C406.282 301.748 406.451 302.309 406.616 302.309C406.781 302.309 406.88 301.748 406.88 302.941Z" fill="#FFD037"/>
<path d="M408.529 304.365C407.483 304.936 406.574 305.28 406.494 305.134C406.414 304.988 407.201 304.408 408.247 303.837C409.293 303.266 408.878 303.681 408.958 303.837C409.038 303.992 409.576 303.794 408.529 304.365Z" fill="#FFD037"/>
<path d="M388.393 298.621C388.393 298.621 385.806 302.012 389.59 307.11C393.374 312.208 396.489 316.542 395.245 319.735C395.245 319.735 389.534 310.232 384.878 310.1C380.222 309.968 383.28 304.337 388.393 298.621Z" fill="#6C63FF"/>
<path opacity="0.1" d="M388.393 298.621C388.168 298.948 387.99 299.305 387.865 299.682C383.332 305.016 380.915 309.991 385.274 310.114C389.331 310.232 394.227 317.495 395.368 319.33C395.33 319.471 395.283 319.608 395.231 319.749C395.231 319.749 389.519 310.246 384.864 310.114C380.208 309.982 383.28 304.337 388.393 298.621Z" fill="black"/>
<path d="M383.582 302.941C383.582 304.134 383.714 305.101 383.879 305.101C384.044 305.101 384.18 304.134 384.18 302.941C384.18 301.748 384.011 302.309 383.846 302.309C383.681 302.309 383.582 301.748 383.582 302.941Z" fill="#FFD037"/>
<path d="M381.928 304.365C382.974 304.936 383.888 305.28 383.968 305.134C384.048 304.988 383.261 304.408 382.215 303.837C381.169 303.266 381.584 303.681 381.504 303.837C381.424 303.992 380.882 303.794 381.928 304.365Z" fill="#FFD037"/>
<path d="M384.406 319.306C384.406 319.306 391.645 319.08 393.831 317.528C396.018 315.976 404.967 314.113 405.509 316.585C406.051 319.056 416.385 328.984 408.214 329.05C400.042 329.116 389.227 327.776 387.05 326.451C384.873 325.126 384.406 319.306 384.406 319.306Z" fill="#A8A8A8"/>
<path opacity="0.2" d="M408.355 328.205C400.184 328.271 389.369 326.932 387.191 325.607C385.533 324.593 384.873 320.966 384.651 319.297H384.411C384.411 319.297 384.882 325.135 387.045 326.465C389.208 327.795 400.038 329.13 408.209 329.064C410.565 329.064 411.385 328.205 411.338 326.96C411.008 327.724 410.108 328.191 408.355 328.205Z" fill="black"/>
<path d="M126.873 321.956C127.738 321.25 128.368 320.298 128.682 319.226C128.913 318.146 128.451 316.868 127.419 316.448C126.26 316.005 125.021 316.811 124.078 317.622C123.136 318.434 122.066 319.363 120.836 319.188C121.469 318.615 121.942 317.887 122.209 317.076C122.477 316.265 122.53 315.399 122.363 314.561C122.309 314.214 122.163 313.889 121.939 313.618C121.293 312.93 120.129 313.222 119.356 313.764C116.906 315.491 116.223 318.825 116.208 321.82C115.963 320.74 116.171 319.613 116.166 318.518C116.161 317.424 115.855 316.16 114.922 315.58C114.343 315.271 113.693 315.118 113.037 315.137C111.934 315.094 110.709 315.208 109.955 316.009C109.013 317.014 109.262 318.693 110.078 319.782C110.893 320.872 112.127 321.579 113.263 322.339C114.177 322.882 114.957 323.626 115.544 324.513C115.611 324.639 115.667 324.769 115.714 324.904H122.617C124.162 324.118 125.594 323.127 126.873 321.956Z" fill="#6C63FF"/>
<path d="M72.0058 329.399C72.0058 329.399 65.3802 306.898 73.2452 290.339C76.5933 283.413 77.6053 275.587 76.1292 268.036C75.401 264.46 74.3456 260.958 72.9766 257.576" stroke="#535461" stroke-width="2" stroke-miterlimit="10"/>
<path d="M77.8539 247.106C77.8539 249.865 72.8681 257.863 72.8681 257.863C72.8681 257.863 67.8777 249.846 67.8777 247.106C67.9175 245.808 68.4605 244.577 69.3916 243.674C70.3227 242.77 71.5688 242.265 72.8658 242.265C74.1628 242.265 75.4088 242.77 76.3399 243.674C77.271 244.577 77.814 245.808 77.8539 247.106Z" fill="#6C63FF"/>
<path d="M86.1007 262.381C84.6068 264.697 76.0726 268.696 76.0726 268.696C76.0726 268.696 76.2281 259.264 77.7267 256.953C78.4631 255.881 79.5882 255.139 80.8629 254.885C82.1376 254.63 83.4612 254.883 84.5521 255.591C85.643 256.298 86.4152 257.403 86.7044 258.671C86.9936 259.939 86.777 261.271 86.1007 262.381Z" fill="#6C63FF"/>
<path d="M85.7426 288.486C83.2827 289.726 73.9003 288.868 73.9003 288.868C73.9003 288.868 78.7918 280.808 81.2516 279.567C81.8383 279.256 82.4811 279.066 83.1423 279.006C83.8035 278.947 84.4698 279.021 85.1023 279.222C85.7349 279.424 86.3208 279.75 86.8259 280.181C87.3309 280.612 87.745 281.14 88.0437 281.733C88.3425 282.327 88.52 282.974 88.5658 283.636C88.6116 284.299 88.5248 284.964 88.3105 285.593C88.0962 286.222 87.7587 286.802 87.3178 287.298C86.8768 287.795 86.3413 288.199 85.7426 288.486Z" fill="#6C63FF"/>
<path d="M81.0254 308.176C78.8106 309.817 69.4187 310.534 69.4187 310.534C69.4187 310.534 72.8776 301.766 75.0736 300.125C75.5964 299.696 76.2009 299.378 76.8502 299.19C77.4996 299.002 78.1804 298.948 78.8513 299.031C79.5222 299.115 80.1691 299.333 80.753 299.674C81.3368 300.015 81.8453 300.472 82.2477 301.015C82.65 301.559 82.9377 302.179 83.0935 302.837C83.2492 303.496 83.2697 304.179 83.1536 304.845C83.0375 305.512 82.7874 306.148 82.4183 306.715C82.0492 307.281 81.5689 307.767 81.0066 308.143L81.0254 308.176Z" fill="#6C63FF"/>
<path d="M65.6017 269.229C67.5762 271.149 76.7842 273.144 76.7842 273.144C76.7842 273.144 74.527 263.99 72.5431 262.065C72.0772 261.589 71.5208 261.211 70.9065 260.953C70.2923 260.695 69.6327 260.563 68.9666 260.564C68.3005 260.565 67.6414 260.7 67.0281 260.96C66.4148 261.22 65.8598 261.601 65.3958 262.079C64.9318 262.557 64.5681 263.124 64.3262 263.745C64.0843 264.366 63.9692 265.029 63.9875 265.696C64.0058 266.362 64.1572 267.018 64.4328 267.625C64.7084 268.232 65.1027 268.777 65.5923 269.229H65.6017Z" fill="#6C63FF"/>
<path d="M60.3756 292.325C62.8355 293.565 72.2179 292.707 72.2179 292.707C72.2179 292.707 67.3264 284.651 64.8665 283.406C63.6885 282.842 62.3364 282.762 61.1002 283.184C59.8641 283.606 58.8425 284.496 58.2547 285.663C57.6669 286.83 57.5597 288.182 57.9563 289.427C58.3528 290.673 59.2214 291.713 60.3756 292.325Z" fill="#6C63FF"/>
<path d="M58.3775 315.472C60.5924 317.108 69.9795 317.83 69.9795 317.83C69.9795 317.83 66.5253 309.062 64.3246 307.421C63.2589 306.71 61.9606 306.436 60.6985 306.656C59.4365 306.876 58.3073 307.573 57.5449 308.604C56.7825 309.634 56.4451 310.918 56.6028 312.191C56.7604 313.463 57.4009 314.626 58.3917 315.439L58.3775 315.472Z" fill="#6C63FF"/>
<path d="M77.8539 247.106C77.8539 249.865 72.8681 257.863 72.8681 257.863C72.8681 257.863 67.8777 249.846 67.8777 247.106C67.9175 245.808 68.4605 244.577 69.3916 243.674C70.3227 242.77 71.5688 242.265 72.8658 242.265C74.1628 242.265 75.4088 242.77 76.3399 243.674C77.271 244.577 77.814 245.808 77.8539 247.106Z" fill="#6C63FF"/>
<path d="M86.1007 262.381C84.6068 264.697 76.0726 268.696 76.0726 268.696C76.0726 268.696 76.2281 259.264 77.7267 256.953C78.4631 255.881 79.5882 255.139 80.8629 254.885C82.1376 254.63 83.4612 254.883 84.5521 255.591C85.643 256.298 86.4152 257.403 86.7044 258.671C86.9936 259.939 86.777 261.271 86.1007 262.381Z" fill="#6C63FF"/>
<path d="M85.7426 288.486C83.2827 289.726 73.9003 288.868 73.9003 288.868C73.9003 288.868 78.7918 280.808 81.2516 279.567C81.8383 279.256 82.4811 279.066 83.1423 279.006C83.8035 278.947 84.4698 279.021 85.1023 279.222C85.7349 279.424 86.3208 279.75 86.8259 280.181C87.3309 280.612 87.745 281.14 88.0437 281.733C88.3425 282.327 88.52 282.974 88.5658 283.636C88.6116 284.299 88.5248 284.964 88.3105 285.593C88.0962 286.222 87.7587 286.802 87.3178 287.298C86.8768 287.795 86.3413 288.199 85.7426 288.486Z" fill="#6C63FF"/>
<path d="M81.0254 308.176C78.8106 309.817 69.4187 310.534 69.4187 310.534C69.4187 310.534 72.8776 301.766 75.0736 300.125C75.5964 299.696 76.2009 299.378 76.8502 299.19C77.4996 299.002 78.1804 298.948 78.8513 299.031C79.5222 299.115 80.1691 299.333 80.753 299.674C81.3368 300.015 81.8453 300.472 82.2477 301.015C82.65 301.559 82.9377 302.179 83.0935 302.837C83.2492 303.496 83.2697 304.179 83.1536 304.845C83.0375 305.512 82.7874 306.148 82.4183 306.715C82.0492 307.281 81.5689 307.767 81.0066 308.143L81.0254 308.176Z" fill="#6C63FF"/>
<path d="M65.6017 269.229C67.5762 271.149 76.7842 273.144 76.7842 273.144C76.7842 273.144 74.527 263.99 72.5431 262.065C72.0772 261.589 71.5208 261.211 70.9065 260.953C70.2923 260.695 69.6327 260.563 68.9666 260.564C68.3005 260.565 67.6414 260.7 67.0281 260.96C66.4148 261.22 65.8598 261.601 65.3958 262.079C64.9318 262.557 64.5681 263.124 64.3262 263.745C64.0843 264.366 63.9692 265.029 63.9875 265.696C64.0058 266.362 64.1572 267.018 64.4328 267.625C64.7084 268.232 65.1027 268.777 65.5923 269.229H65.6017Z" fill="#6C63FF"/>
<path d="M60.3756 292.325C62.8355 293.565 72.2179 292.707 72.2179 292.707C72.2179 292.707 67.3264 284.651 64.8665 283.406C63.6885 282.842 62.3364 282.762 61.1002 283.184C59.8641 283.606 58.8425 284.496 58.2547 285.663C57.6669 286.83 57.5597 288.182 57.9563 289.427C58.3528 290.673 59.2214 291.713 60.3756 292.325Z" fill="#6C63FF"/>
<path d="M58.3775 315.472C60.5924 317.108 69.9795 317.83 69.9795 317.83C69.9795 317.83 66.5253 309.062 64.3246 307.421C63.2589 306.71 61.9606 306.436 60.6985 306.656C59.4365 306.876 58.3073 307.573 57.5449 308.604C56.7825 309.634 56.4451 310.918 56.6028 312.191C56.7604 313.463 57.4009 314.626 58.3917 315.439L58.3775 315.472Z" fill="#6C63FF"/>
<path d="M56.337 327.984C56.337 327.984 64.4047 326.38 66.5536 324.244C68.7024 322.107 78.3818 318.367 79.4562 321.037C80.5306 323.706 93.9705 332.79 84.8284 334.393C75.6863 335.997 63.3256 336.53 60.6395 335.459C57.9534 334.388 56.337 327.984 56.337 327.984Z" fill="#A8A8A8"/>
<path opacity="0.2" d="M84.8425 333.393C75.7051 334.997 63.3397 335.53 60.6536 334.464C58.6084 333.648 57.1853 329.748 56.6245 327.922L56.337 327.984C56.337 327.984 57.9534 334.393 60.6395 335.459C63.3256 336.525 75.691 335.992 84.8284 334.393C87.4673 333.922 88.2213 332.842 87.9386 331.469C87.7265 332.36 86.8076 333.049 84.8425 333.393Z" fill="black"/>
<path d="M341.307 123.555C343.837 120.725 342.848 116.316 342.848 116.316C342.848 116.316 330.906 85.8585 329.582 85.5237C328.258 85.1888 324.936 77.5061 324.936 77.5061C324.936 77.5061 293.094 47.2139 291.949 47.2139C290.804 47.2139 279.178 38.8474 277.689 38.6823C276.2 38.5173 273.872 37.6778 271.384 36.3242C268.896 34.9707 243.684 36.494 242.69 37.6636C241.696 38.8332 237.035 39.6727 237.035 39.6727C237.035 39.6727 227.582 40.1726 226.253 41.8469C224.924 43.5211 215.146 44.4078 215.146 44.4078C215.146 44.4078 210.334 46.2 216.866 50.9586C214.773 51.2887 212.328 51.5434 209.844 51.7226C209.222 51.7651 208.591 51.8075 207.959 51.8405H207.587C207.17 50.5785 206.357 49.4851 205.268 48.7231C204.557 48.3365 203.822 47.9947 203.068 47.6997C201.9 47.0782 200.806 46.3267 199.807 45.4595C194.972 41.6117 189.813 38.1906 184.388 35.2348C183.55 34.71 182.616 34.3588 181.64 34.2019C179.619 34.0086 177.814 35.4281 175.835 35.9045C172.357 36.7392 168.851 34.6169 165.274 34.5839C160.807 34.5415 156.74 38.022 155.378 42.3138C154.874 43.9032 154.648 45.6717 153.559 46.931C152.145 48.5769 149.756 48.8174 147.819 49.7937C146.416 50.5263 145.24 51.6297 144.419 52.9842C143.598 54.3386 143.164 55.8923 143.163 57.4764V57.5141C143.163 57.7641 143.163 58.014 143.206 58.264C143.427 60.2825 144.36 62.1454 145.044 64.0602C145.746 66.0222 146.189 68.0674 146.363 70.1441C146.366 70.1661 146.366 70.1882 146.363 70.2102C146.391 70.5544 146.415 70.8987 146.429 71.2477C146.429 71.3185 146.429 71.3939 146.429 71.4694C146.429 71.7995 146.429 72.1344 146.429 72.4692C146.429 74.2708 146.368 76.0865 146.373 77.8881V77.9825V78.7984C146.373 78.8644 146.373 78.9304 146.373 78.9964C146.373 79.237 146.373 79.4681 146.401 79.7227V79.9774C146.401 80.1991 146.434 80.4255 146.457 80.6471C146.457 80.7414 146.457 80.8405 146.481 80.9348C146.481 81.1517 146.533 81.364 146.561 81.5762L146.604 81.878C146.637 82.0903 146.674 82.3025 146.712 82.5147L146.768 82.8071C146.816 83.0335 146.872 83.2788 146.929 83.4863C146.952 83.5664 146.966 83.6419 146.985 83.7221C147.07 84.0365 147.164 84.3383 147.268 84.6276C147.974 86.6079 149.139 88.3924 150.667 89.8345C152.196 91.2767 154.044 92.3353 156.061 92.9234C156.821 93.1329 157.606 93.2314 158.394 93.2158C159.808 93.1828 161.16 92.7442 161.999 91.7774C162.206 92.0132 162.409 92.249 162.626 92.4848C165.699 95.8301 169.534 98.3843 173.803 99.9309C178.073 101.478 182.653 101.971 187.154 101.369C191.655 100.768 195.944 99.0887 199.659 96.4748C203.373 93.8608 206.403 90.389 208.492 86.3537C208.987 86.2453 209.477 86.1462 209.971 86.0519C210.829 85.8915 211.692 85.7406 212.559 85.5803L213.393 85.4482L213.723 85.3916C217.964 84.7219 222.082 84.2739 225.032 83.9768L213.374 85.4246C213.374 85.4246 210.546 99.012 209.731 100.516C208.916 102.021 212.559 104.53 212.559 104.53C212.559 104.53 215.711 108.378 215.711 109.553C215.711 110.727 219.359 114.071 220.353 115.91C220.479 116.143 220.638 116.358 220.824 116.547C220.088 116.832 219.408 117.245 218.817 117.768C216.512 119.952 217.28 123.782 216.225 126.781C215.565 128.668 214.184 130.196 212.855 131.681C212.378 132.166 211.978 132.721 211.668 133.327C211.495 133.729 211.389 134.155 211.352 134.591C211.329 134.832 211.319 135.075 211.324 135.317V135.402C211.324 135.591 211.324 135.775 211.362 135.959C211.362 136.039 211.362 136.119 211.362 136.199C211.593 138.171 212.262 140.076 212.464 142.047C212.667 144.019 212.422 146.004 212.827 147.924C212.968 148.593 213.186 149.244 213.478 149.862L206.729 157.408C206.729 157.408 206.687 157.781 206.673 158.394C201.046 163.068 192.347 171.887 195.453 179.664C195.792 180.516 196.106 181.332 196.395 182.112C194.109 183.569 193.355 185.3 196.781 187.026C197.323 187.299 197.846 187.535 198.36 187.747C200.118 192.912 200.806 194.35 203.751 190.544C204.067 190.129 204.434 189.601 204.835 189.03C208.982 188.945 211.381 187.026 211.381 187.026C211.381 187.026 222.987 186.356 225.989 188.2C227.492 189.143 231.027 189.332 234.156 189.308C234.114 192.682 234.271 196.055 234.627 199.411C234.627 199.411 234.127 213.635 235.456 216.648C236.785 219.662 237.52 224.85 237.52 224.85C237.52 224.85 235.291 229.868 236.616 232.547C237.94 235.225 235.456 239.074 235.456 239.074V248.945L236.399 248.879C236.328 249.544 236.239 250.242 236.121 250.907C235.847 252.449 235.437 253.831 234.806 254.279C233.147 255.472 232.982 261.825 232.982 261.825C232.982 261.825 230.329 269.526 230.824 270.866C231.319 272.205 227.676 274.879 228.505 276.888C229.335 278.898 231.031 291.612 232.506 295.282C233.981 298.951 229.5 297.96 229.5 297.96L230.824 307.497C230.824 307.497 232.153 317.203 231.159 317.872C230.164 318.542 224.443 323.395 228.378 326.239C228.685 326.46 228.996 326.663 229.321 326.857C229.338 327.297 229.327 327.738 229.288 328.177C229.212 328.927 229.024 329.526 228.604 329.592C227.436 329.762 225.112 330.931 224.622 330.432C224.132 329.932 221.324 331.695 218.496 332.271L218.105 332.332L214.434 331.389C209.123 329.364 203.293 329.148 197.846 330.776C197.846 330.776 195.184 331.191 193.893 333.181C193.238 334.2 192.95 335.633 193.535 337.633C195.306 343.547 207.384 345.585 207.384 345.585C207.384 345.585 211.569 346.448 216.597 347.589C216.432 347.589 216.263 347.589 216.093 347.589C214.705 347.579 213.364 348.091 212.335 349.022C211.305 349.954 210.662 351.238 210.532 352.62C210.403 354.003 210.795 355.385 211.633 356.492C212.471 357.599 213.694 358.351 215.059 358.601C216.424 358.85 217.833 358.578 219.008 357.839C220.183 357.099 221.038 355.946 221.404 354.606C221.771 353.267 221.622 351.838 220.988 350.603C220.354 349.367 219.28 348.415 217.978 347.933C223.633 349.235 229.896 350.82 232.44 351.937C234.335 352.651 236.276 353.234 238.251 353.682C238.348 354.853 238.816 355.962 239.587 356.848C240.357 357.733 241.39 358.35 242.535 358.608C243.68 358.866 244.877 358.751 245.953 358.281C247.028 357.811 247.926 357.009 248.514 355.993C256.21 357.602 263.622 358.965 263.622 358.965L276.002 359.167H276.087C274.628 359.177 273.232 359.766 272.206 360.803C271.18 361.841 270.606 363.244 270.611 364.704C270.616 366.164 271.199 367.563 272.232 368.594C273.266 369.624 274.665 370.203 276.124 370.203C277.584 370.203 278.983 369.624 280.016 368.594C281.05 367.563 281.633 366.164 281.638 364.704C281.643 363.244 281.069 361.841 280.043 360.803C279.017 359.766 277.621 359.177 276.162 359.167L294.903 359.474C294.679 360.237 294.621 361.04 294.734 361.828C294.847 362.615 295.128 363.37 295.559 364.039C295.989 364.708 296.559 365.276 297.229 365.705C297.899 366.133 298.653 366.413 299.44 366.523C300.228 366.634 301.03 366.574 301.792 366.346C302.554 366.118 303.258 365.729 303.856 365.205C304.454 364.68 304.932 364.033 305.257 363.307C305.583 362.581 305.748 361.793 305.742 360.997C305.741 360.542 305.684 360.089 305.572 359.648L322.104 359.917L325.402 356.286C325.587 355.933 325.697 355.546 325.727 355.149C325.826 353.956 325.209 352.145 320.987 351.376C320.676 351.32 312.061 351.456 304.451 351.584V348.594C304.451 348.594 304.239 346.948 304.107 345.009C304.069 344.439 304.036 343.844 304.022 343.26C304.453 343.555 304.931 343.773 305.436 343.906C308.588 344.41 312.9 335.204 312.9 335.204C312.9 335.204 312.9 330.016 313.895 325.833C314.889 321.65 316.722 307.591 316.722 307.591L320.709 290.693C320.709 290.693 322.358 256.217 321.529 254.878C320.699 253.538 322.528 251.195 322.528 251.195C322.528 251.195 323.852 243.833 321.863 241.324C319.875 238.815 323.023 236.301 323.023 236.301C323.023 236.301 323.852 227.599 321.529 224.256C319.205 220.912 322.617 218.568 322.617 218.568L323.447 205.013C326.929 201.5 330.077 180.584 330.247 176.065C330.29 173.522 330.855 171.015 331.905 168.699C331.905 168.699 334.224 165.185 334.559 162.841C334.893 160.497 337.386 155.649 337.386 155.649L341.698 139.581C343.437 133.101 342.994 128.309 341.839 124.895C341.67 124.414 341.491 123.975 341.307 123.555ZM263.406 124.498C266.059 126.173 265.229 126.673 266.059 127.677C266.888 128.682 266.224 128.512 265.559 130.186C264.895 131.86 265.394 131.36 265.724 133.2C266.054 135.039 265.894 135.039 265.894 135.039L266.723 135.157L265.569 142.925C263.684 144.156 262.821 146.514 262.43 148.947C261.318 147.495 260.196 145.985 259.193 144.58C259.537 143.811 259.471 142.896 259.48 142.033C259.518 139.204 260.573 136.501 261.059 133.714C261.555 130.878 261.463 127.971 260.79 125.173C260.549 124.12 260.177 123.101 259.683 122.14C260.757 122.857 262.119 123.706 263.406 124.517V124.498ZM266.389 288.495C266.389 288.495 268.486 287.08 270.521 285.793C271.205 290.759 271.85 295.923 272.307 300.592C271.577 298.97 271.068 297.866 271.068 297.866C270.32 296.966 269.872 295.855 269.786 294.687C269.706 292.867 266.389 288.514 266.389 288.514V288.495ZM253.953 116.486C254.424 116.552 255.093 117.151 255.724 117.867C255.14 117.396 254.551 116.924 253.948 116.481L253.953 116.486ZM223.6 178.4C221.687 179.004 215.202 178.914 211.348 178.688C212.79 176.221 214.222 173.712 215.494 171.462C216.245 171.657 217.009 171.794 217.78 171.873L230.405 160.775C235.153 162.442 240.333 162.409 245.06 160.681L245.404 161.219C245.55 161.455 245.706 161.69 245.875 161.954L245.56 161.44C245.56 161.44 240.687 164.346 241.182 165.685C241.677 167.024 240.522 170.368 238.698 173.953C238.227 174.849 237.817 175.735 237.421 176.627C233.293 177.013 225.513 177.796 223.6 178.4ZM247.553 333.016L247.482 331.691C248.283 331.516 248.811 331.356 248.811 331.356C248.646 329.389 248.369 327.434 247.982 325.498C247.482 323.489 247.742 324.159 249.683 322.669C251.625 321.178 249.683 304.275 249.683 304.275C249.683 304.275 250.626 303.101 252.119 306.115C253.613 309.128 255.112 310.968 255.611 311.133C256.111 311.298 253.618 314.651 255.611 317.83C256.849 319.886 257.691 322.156 258.095 324.522C258.095 324.522 256.771 329.837 258.759 332.2C259.028 332.475 259.348 332.695 259.702 332.846C259.702 333.285 259.702 333.752 259.702 334.19C259.702 335.072 259.702 335.827 259.659 335.987C259.64 336.1 259.592 336.206 259.519 336.295C259.447 336.384 259.353 336.453 259.246 336.495C259.14 336.536 259.024 336.55 258.911 336.534C258.797 336.517 258.69 336.472 258.599 336.402C258.085 336.067 254.829 336.817 255.051 338.916C254.28 339.827 253.408 340.645 252.449 341.354L247.93 340.185L247.553 333.016Z" fill="url(#paint0_linear)"/>
<path d="M206.852 159.644C206.852 159.644 205.273 172.59 217.794 173.915L219.679 164.954L215.735 159.644L210.085 157.729L206.852 159.644Z" fill="#6C63FF"/>
<path opacity="0.1" d="M210.085 157.729L206.852 159.639C206.852 159.639 205.273 172.585 217.794 173.91" fill="black"/>
<path d="M229.57 86.4433C229.57 86.4433 221.121 86.9621 212.648 88.3675C211.781 88.5153 210.919 88.6725 210.061 88.8392C209.561 88.9335 209.071 89.0325 208.581 89.141C204.142 90.056 200.099 91.2444 197.743 92.7631C194.915 94.5788 193.973 89.6881 193.883 82.892C193.846 80.5009 193.926 77.8787 194.053 75.2282C194.218 72.1627 194.458 69.0594 194.713 66.2674C195.273 60.0797 195.919 55.2692 195.919 55.2692C195.919 55.2692 198.878 55.2692 202.832 55.1324L204.105 55.0853C205.344 55.0381 206.659 54.9721 207.983 54.8919C208.61 54.8589 209.241 54.8212 209.868 54.774C212.375 54.5948 214.849 54.3401 216.936 54.01C219.161 53.6516 220.966 53.1988 221.946 52.5951C226.423 49.9257 229.57 86.4433 229.57 86.4433Z" fill="#F8BDC5"/>
<path d="M267.218 134.247L265.569 145.203C265.569 145.203 261.973 149.683 262.444 152.173C262.916 154.663 267.062 264.711 267.062 264.711C267.062 264.711 275.191 311.185 272.369 317.16C269.546 323.136 272.204 337.081 272.204 337.081L289.121 334.426L294.776 131.257L267.218 134.247Z" fill="#474463"/>
<path opacity="0.1" d="M267.218 134.247L265.569 145.203C265.569 145.203 261.973 149.683 262.444 152.173C262.916 154.663 267.062 264.711 267.062 264.711C267.062 264.711 275.191 311.185 272.369 317.16C269.546 323.136 272.204 337.081 272.204 337.081L289.121 334.426L294.776 131.257L267.218 134.247Z" fill="black"/>
<path d="M304.536 339.902C303.998 340.793 304.041 343.415 304.192 345.646C304.324 347.566 304.536 349.197 304.536 349.197V360.483C304.536 360.483 286.459 354.178 276.506 347.537C272.402 344.797 271.233 342.25 271.459 340.213C271.789 337.312 274.946 335.421 276.506 335.421C277.995 335.421 282.698 332.823 286.553 330.526C289.583 328.729 292.1 327.121 292.1 327.121C292.1 327.121 305.53 338.242 304.536 339.902Z" fill="#575988"/>
<path opacity="0.1" d="M304.536 339.902C303.998 340.793 304.041 343.415 304.192 345.646C300.172 343.76 287.726 331.677 286.553 330.526C289.583 328.729 292.099 327.121 292.099 327.121C292.099 327.121 305.53 338.242 304.536 339.902Z" fill="black"/>
<path d="M341.688 141.882L337.377 157.818C337.377 157.818 334.888 162.629 334.549 164.954C334.21 167.279 331.896 170.764 331.896 170.764C330.849 173.058 330.284 175.543 330.237 178.065C330.072 182.55 326.939 203.297 323.437 206.782L322.608 220.228C322.608 220.228 319.309 222.548 321.614 225.887C323.918 229.227 323.107 237.838 323.107 237.838C323.107 237.838 319.955 240.328 321.948 242.819C323.941 245.309 322.608 252.614 322.608 252.614C322.608 252.614 320.784 254.935 321.614 256.264C322.443 257.594 320.794 291.787 320.794 291.787L316.807 308.548C316.807 308.548 314.978 322.494 313.979 326.644C312.98 330.795 312.985 335.935 312.985 335.935C312.985 335.935 308.673 345.066 305.521 344.571C302.368 344.076 287.114 329.13 287.114 329.13L289.267 278.666C289.267 278.666 291.091 257.255 289.932 253.105C288.773 248.954 287.943 228.208 287.943 228.208L285.62 195.51L262.425 158.993C262.425 158.993 260.743 148.367 265.55 145.217L266.422 139.477L267.209 134.261L294.743 131.271L336.868 120.32C336.868 120.32 340.114 122.324 341.816 127.328C342.98 130.7 343.427 135.454 341.688 141.882Z" fill="#474463"/>
<path d="M268.396 158.672C268.396 158.672 248.825 182.725 249.655 176.004C250.173 171.783 247.496 166.628 245.414 163.369C244.184 161.431 243.166 160.162 243.166 160.162C243.166 160.162 255.107 138.256 255.772 141.241C255.984 142.184 257.364 144.349 259.141 146.82C262.887 151.999 268.396 158.672 268.396 158.672Z" fill="#FFC1C8"/>
<path opacity="0.3" d="M304.536 358.135V360.493C304.536 360.493 286.459 354.187 276.506 347.547C272.402 344.807 271.233 342.26 271.459 340.222C276.954 343.005 287.175 348.311 290.271 350.702C292.901 352.73 299.696 355.941 304.536 358.135Z" fill="white"/>
<path d="M300.28 367.091C303.333 367.091 305.808 364.614 305.808 361.558C305.808 358.503 303.333 356.026 300.28 356.026C297.228 356.026 294.753 358.503 294.753 361.558C294.753 364.614 297.228 367.091 300.28 367.091Z" fill="#474463"/>
<path d="M243.816 359.323C246.869 359.323 249.344 356.846 249.344 353.791C249.344 350.736 246.869 348.259 243.816 348.259C240.763 348.259 238.288 350.736 238.288 353.791C238.288 356.846 240.763 359.323 243.816 359.323Z" fill="#474463"/>
<path d="M325.812 355.758C325.781 356.151 325.671 356.535 325.487 356.885L322.188 360.483L276.082 359.743L263.684 359.54C263.684 359.54 237.586 354.786 232.502 352.569C227.417 350.353 207.427 346.297 207.427 346.297C207.427 346.297 195.354 344.269 193.582 338.407C192.983 336.421 193.285 335.002 193.94 333.992C195.226 332.016 197.894 331.601 197.894 331.601C203.342 329.991 209.167 330.206 214.481 332.214L291.765 352.112L292.962 352.418C292.962 352.418 320.511 351.904 321.067 352.003C325.294 352.777 325.911 354.574 325.812 355.758Z" fill="#6C63FF"/>
<path opacity="0.3" d="M325.812 355.758C321.175 355.154 313.089 354.263 311.006 355.121C311.006 355.121 296.298 353.3 276.063 359.743L263.684 359.54C263.684 359.54 237.586 354.786 232.502 352.569C227.417 350.353 207.427 346.297 207.427 346.297C207.427 346.297 195.354 344.269 193.582 338.407C192.983 336.421 193.285 335.002 193.94 333.992C194.764 336.398 196.353 339.883 198.888 340.859C202.87 342.392 219.236 345.514 219.236 345.514L251.629 353.451C251.629 353.451 270.333 357.512 277.614 354.866C280.597 353.791 286.195 352.833 291.751 352.084L292.948 352.39C292.948 352.39 320.497 351.876 321.053 351.975C325.294 352.777 325.911 354.574 325.812 355.758Z" fill="white"/>
<path d="M281.077 349.782C281.038 350.477 280.951 351.169 280.818 351.853C280.818 351.853 262.496 352.508 252.958 351.093C250.324 350.702 248.835 349.858 248.095 348.848C247.765 348.371 247.56 347.819 247.5 347.242C247.44 346.665 247.526 346.082 247.751 345.547C247.856 345.24 247.99 344.943 248.151 344.66C248.863 343.415 249.956 342.533 250.555 342.651C252.214 342.986 255.06 339.581 255.06 339.581C254.834 337.501 258.099 336.751 258.608 337.091C258.699 337.161 258.806 337.206 258.92 337.222C259.033 337.238 259.149 337.225 259.256 337.183C259.362 337.141 259.456 337.073 259.529 336.984C259.601 336.895 259.649 336.789 259.669 336.676C259.702 336.52 259.711 335.77 259.711 334.893C259.711 333.431 259.669 331.592 259.669 331.592L278.085 333.832L278.815 337.355C279.484 340.496 280.417 344.811 280.818 346.287C281.096 347.43 281.184 348.611 281.077 349.782Z" fill="#474463"/>
<path opacity="0.1" d="M281.077 349.782C281.038 350.477 280.951 351.169 280.818 351.853C280.818 351.853 262.496 352.508 252.958 351.093C250.324 350.702 248.835 349.858 248.095 348.848C250.541 348.702 253.722 348.622 255.691 349.103C258.5 349.801 275.3 349.801 281.077 349.782Z" fill="black"/>
<path d="M248.133 344.651C248.153 344.821 248.126 344.994 248.055 345.15C247.985 345.306 247.873 345.44 247.732 345.537C245.414 347.33 234.288 345.382 234.288 345.382C234.288 345.382 211.555 343.967 208.157 341.647C207.851 341.445 207.594 341.175 207.408 340.859C205.994 338.303 211.112 334.011 211.555 334.011C211.998 334.011 218.11 333.176 218.52 333.096C221.347 332.526 224.175 330.771 224.646 331.271C225.117 331.771 227.473 330.606 228.623 330.441C229.043 330.38 229.236 329.785 229.307 329.026C229.373 327.999 229.338 326.967 229.203 325.946L247.36 330.837L247.52 333.733L248.043 343.373L248.109 344.557C248.12 344.587 248.128 344.619 248.133 344.651Z" fill="#474463"/>
<path opacity="0.1" d="M234.306 345.382C234.306 345.382 211.574 343.967 208.176 341.647C207.869 341.445 207.613 341.175 207.427 340.859C212.031 341.236 219.707 341.873 221.093 342.227C223.086 342.698 234.288 343.387 234.288 343.387H248.062L248.128 344.571C248.726 347.91 234.306 345.382 234.306 345.382Z" fill="black"/>
<path d="M216.135 359.323C219.188 359.323 221.663 356.846 221.663 353.791C221.663 350.736 219.188 348.259 216.135 348.259C213.082 348.259 210.608 350.736 210.608 353.791C210.608 356.846 213.082 359.323 216.135 359.323Z" fill="#474463"/>
<path d="M276.172 370.807C279.224 370.807 281.699 368.33 281.699 365.275C281.699 362.22 279.224 359.743 276.172 359.743C273.119 359.743 270.644 362.22 270.644 365.275C270.644 368.33 273.119 370.807 276.172 370.807Z" fill="#474463"/>
<path d="M219.952 165.619C219.952 165.619 218.906 167.505 217.332 170.307C213.562 176.966 206.781 188.771 203.864 192.506C199.717 197.817 200.052 192.841 195.57 181.72C192.243 173.448 202.483 163.982 207.959 159.681C209.844 158.186 211.164 157.323 211.164 157.323L219.952 165.619Z" fill="#F8BDC5"/>
<path d="M240.018 178.4C240.018 178.4 226.253 179.56 223.6 180.39C220.947 181.22 209.505 180.72 208.52 180.39C207.535 180.06 187.95 184.54 196.909 189.021C205.867 193.501 211.517 189.021 211.517 189.021C211.517 189.021 223.129 188.356 226.126 190.186C229.123 192.016 240.056 191.016 240.056 191.016L240.018 178.4Z" fill="#FFC1C8"/>
<path opacity="0.1" d="M211.423 76.8176C213.119 81.1612 212.059 84.9436 210.061 88.825C205.056 89.7683 200.349 91.0652 197.729 92.7489C190.264 97.5642 195.905 55.2362 195.905 55.2362C195.905 55.2362 199.515 55.2362 204.09 55.0523C202.705 61.3814 207.955 67.9511 211.423 76.8176Z" fill="black"/>
<path d="M211.847 75.8743C211.838 82.8263 209.272 89.5318 204.639 94.7116C200.006 99.8915 193.63 103.183 186.727 103.959C179.824 104.734 172.877 102.94 167.212 98.917C161.546 94.8943 157.559 88.9251 156.01 82.1481C154.461 75.3711 155.459 68.2607 158.813 62.173C162.168 56.0854 167.644 51.4466 174.198 49.1416C180.751 46.8366 187.923 47.0267 194.346 49.6756C200.768 52.3246 205.992 57.2469 209.02 63.5037C210.886 67.3598 211.852 71.5897 211.847 75.8743Z" fill="#F8BDC5"/>
<path opacity="0.1" d="M341.825 127.314C340.93 128.618 339.589 129.549 338.055 129.931C331.585 131.757 285.973 142.712 282.99 142.047C280.356 141.463 269.051 139.835 266.445 139.463L267.232 134.247L294.767 131.257L336.891 120.306C336.891 120.306 340.124 122.31 341.825 127.314Z" fill="black"/>
<path opacity="0.1" d="M229.57 86.4433C224.179 86.7667 218.808 87.3649 213.477 88.2355C213.553 87.9927 213.543 87.7313 213.449 87.495L224.476 86.1321C224.476 86.1321 222.865 60.1929 216.936 53.977C219.161 53.6185 220.966 53.1658 221.946 52.5621C226.423 49.9257 229.57 86.4433 229.57 86.4433Z" fill="black"/>
<path d="M215.146 47.4875C215.146 47.4875 224.933 46.6055 226.258 44.9454C227.582 43.2853 237.04 42.7901 237.04 42.7901C237.04 42.7901 241.681 41.9601 242.695 40.7952C243.708 39.6303 268.896 38.14 271.384 39.4699C273.872 40.7999 276.195 41.6252 277.689 41.795C279.183 41.9648 290.789 50.2559 291.949 50.2559C293.108 50.2559 324.936 80.3028 324.936 80.3028C324.936 80.3028 328.234 87.9384 329.582 88.2685C330.93 88.5986 342.852 118.811 342.852 118.811C342.852 118.811 344.511 126.111 338.046 127.941C331.58 129.771 285.964 140.722 282.981 140.057C279.998 139.392 265.898 137.402 265.898 137.402C265.898 137.402 266.063 137.402 265.734 135.577C265.404 133.752 264.904 134.247 265.564 132.587C266.224 130.927 266.893 131.092 266.063 130.097C265.234 129.101 266.063 128.602 263.41 126.941C260.757 125.281 257.755 123.456 257.605 122.961C257.454 122.466 255.116 119.141 253.957 118.976C252.798 118.811 220.287 109.68 220.287 109.68L212.658 107.19C212.658 107.19 209.01 104.7 209.83 103.209C210.65 101.719 213.473 88.2355 213.473 88.2355L225.136 86.7971C225.136 86.7971 223.397 58.6885 216.866 53.9723C210.334 49.256 215.146 47.4875 215.146 47.4875Z" fill="#6C63FF"/>
<path opacity="0.1" d="M219.952 165.619C219.952 165.619 218.906 167.505 217.332 170.307C217.087 161.648 211.036 159.969 207.959 159.681C209.844 158.186 211.164 157.323 211.164 157.323L219.952 165.619Z" fill="black"/>
<path d="M211.847 102.71L212.648 107.19C212.648 107.19 215.801 111.01 215.801 112.17C215.801 113.33 219.448 116.651 220.447 118.476C221.446 120.301 224.924 120.636 223.595 123.791C222.266 126.946 214.642 151.013 214.642 151.013L206.847 159.644C206.847 159.644 219.783 158.479 217.789 173.915L234.542 159.295L247.661 135.407C247.661 135.407 234.891 111.175 234.396 109.185C233.901 107.195 211.847 102.71 211.847 102.71Z" fill="#6C63FF"/>
<path opacity="0.1" d="M250.635 111.01C250.635 111.01 261.247 103.54 261.247 102.71C261.247 101.879 250.635 111.01 250.635 111.01Z" fill="black"/>
<path opacity="0.1" d="M268.396 120.306C268.396 120.306 274.051 118.976 274.522 115.99C274.993 113.005 268.396 120.306 268.396 120.306Z" fill="black"/>
<path opacity="0.1" d="M273.024 127.941C273.024 127.941 280.988 123.994 280.653 123.31C280.319 122.626 273.024 127.941 273.024 127.941Z" fill="black"/>
<path opacity="0.1" d="M315.648 102.658C315.648 102.658 312.349 104.813 313.329 106.831C314.309 108.85 315.648 102.658 315.648 102.658Z" fill="black"/>
<path opacity="0.1" d="M325.416 103.54C325.416 103.54 316.02 112.5 318.145 112.67C320.27 112.84 325.416 103.54 325.416 103.54Z" fill="black"/>
<path opacity="0.1" d="M304.041 242.47C304.041 242.47 316.147 244.795 316.477 245.625C316.807 246.455 304.041 242.47 304.041 242.47Z" fill="black"/>
<path opacity="0.1" d="M308.353 250.435C308.353 250.435 314.818 254.42 314.983 255.581C315.148 256.741 308.353 250.435 308.353 250.435Z" fill="black"/>
<path opacity="0.1" d="M306.859 259.401C306.859 259.401 307.853 263.881 309.512 264.546C311.171 265.211 306.859 259.401 306.859 259.401Z" fill="black"/>
<path opacity="0.1" d="M209.048 63.3575C209.048 63.4047 209.048 63.4566 209.024 63.5037C208.798 64.9799 208.195 66.5787 206.809 67.0692C205.972 67.3048 205.078 67.2225 204.298 66.8381C201.942 65.8052 199.845 63.3245 197.328 63.9235C196.131 64.2064 195.292 65.1167 194.699 66.2344C194.287 67.039 193.971 67.8889 193.756 68.767C193.285 70.6157 192.908 72.6249 193.629 74.384C193.747 74.6718 193.889 74.9494 194.053 75.214C194.722 76.2846 195.665 77.1949 196.324 78.2749C197.144 79.6237 197.356 81.647 196.079 82.5713C195.759 82.7821 195.396 82.919 195.016 82.972C194.636 83.025 194.249 82.9929 193.883 82.8779C192.948 82.5837 192.048 82.185 191.202 81.6894C189.534 80.8169 187.432 80.2745 185.849 81.2838C185.302 81.6234 184.864 82.1139 184.341 82.4723C183.253 83.1462 181.964 83.415 180.698 83.2316C177.701 82.925 176.579 81.0244 174.289 79.553C172.611 78.4682 169.105 78.006 168.106 80.2227C167.465 81.6375 168.417 83.4202 167.791 84.8634C167.164 86.3066 165.17 86.7499 164.247 88.0893C163.031 89.8531 164.162 92.4046 163.271 94.3618C163.135 94.665 162.952 94.9451 162.729 95.1919C157.736 89.8066 155.023 82.6932 155.162 75.3475C155.301 68.0018 158.281 60.9962 163.475 55.8042C168.669 50.6121 175.673 47.638 183.013 47.5075C190.353 47.377 197.457 50.1001 202.832 55.1041L204.105 55.057C205.344 55.0098 206.659 54.9438 207.983 54.8636C208.296 55.5271 208.541 56.2209 208.713 56.934C209.226 59.0353 209.339 61.2143 209.048 63.3575Z" fill="black"/>
<path d="M167.432 79.5624C166.787 80.9772 167.739 82.76 167.117 84.1984C166.495 85.6369 164.487 86.0849 163.573 87.4243C162.352 89.1929 163.483 91.7443 162.598 93.6969C161.58 95.9276 158.507 96.2766 156.151 95.6258C154.138 95.0505 152.291 94.0041 150.762 92.5731C149.233 91.1421 148.066 89.3675 147.358 87.396C145.76 82.8449 146.792 77.8363 146.377 73.0304C146.201 70.971 145.757 68.9433 145.058 66.9984C144.375 65.1119 143.442 63.2537 143.22 61.2494C143.062 59.5487 143.416 57.8395 144.237 56.3423C145.059 54.8451 146.31 53.6286 147.829 52.8498C149.77 51.9066 152.159 51.6377 153.573 50.0201C154.657 48.7656 154.888 47.0159 155.392 45.4359C156.754 41.1913 160.821 37.7296 165.288 37.7721C168.86 37.8004 172.357 39.9085 175.849 39.0785C177.823 38.6069 179.619 37.192 181.655 37.3948C182.63 37.5483 183.564 37.8963 184.402 38.4182C189.822 41.3481 194.979 44.7406 199.816 48.5581C200.817 49.4205 201.912 50.1657 203.082 50.7794C203.835 51.0731 204.57 51.4118 205.283 51.7934C206.805 52.7366 207.601 54.5335 208.035 56.2785C208.555 58.3784 208.673 60.558 208.383 62.702C208.176 64.2159 207.582 65.9137 206.145 66.4183C205.305 66.6527 204.409 66.567 203.629 66.1778C201.272 65.1544 199.18 62.6737 196.664 63.2679C194.609 63.7395 193.619 66.0693 193.082 68.1114C192.611 69.9602 192.225 71.9693 192.955 73.7332C193.558 75.1952 194.84 76.2658 195.646 77.6193C196.452 78.9729 196.682 80.9961 195.401 81.9158C193.987 82.9392 192.069 81.8498 190.519 81.0386C188.86 80.1661 186.749 79.6237 185.17 80.6283C184.628 80.9678 184.19 81.4583 183.662 81.8215C182.574 82.4889 181.288 82.7557 180.024 82.576C177.022 82.2695 175.901 80.3689 173.615 78.8974C171.933 77.8032 168.436 77.3411 167.432 79.5624Z" fill="#474463"/>
<path opacity="0.1" d="M259.146 146.797C259.018 147.504 258.048 147.584 257.85 148.273C255.965 154.927 251.818 160.912 245.418 163.365C244.188 161.426 243.17 160.158 243.17 160.158C243.17 160.158 255.112 138.251 255.776 141.236C255.988 142.165 257.369 144.325 259.146 146.797Z" fill="black"/>
<path d="M259.499 142.212C259.5 146.546 258.217 150.783 255.812 154.387C253.406 157.991 249.987 160.8 245.987 162.459C241.986 164.119 237.584 164.553 233.337 163.708C229.089 162.863 225.188 160.777 222.125 157.713C219.063 154.648 216.977 150.744 216.132 146.494C215.287 142.243 215.72 137.837 217.377 133.833C219.034 129.829 221.84 126.407 225.441 123.999C229.042 121.591 233.275 120.306 237.605 120.306C240.483 120.295 243.334 120.854 245.995 121.952C248.656 123.049 251.073 124.662 253.108 126.698C255.143 128.734 256.756 131.154 257.853 133.816C258.949 136.479 259.509 139.332 259.499 142.212Z" fill="#FFC1C8"/>
<path opacity="0.1" d="M247.397 330.851L247.558 333.747C245.64 334.171 241.992 334.728 239.867 333.426C237.12 331.743 233.062 331.332 229.344 329.04C229.41 328.013 229.376 326.981 229.24 325.961L247.397 330.851Z" fill="black"/>
<path opacity="0.1" d="M278.815 337.364C278.688 338.01 278.57 338.407 278.57 338.407C278.57 338.407 263.938 336.907 259.721 334.884C259.721 333.422 259.678 331.582 259.678 331.582L278.094 333.822L278.815 337.364Z" fill="black"/>
<path d="M275.512 271.517C274.518 274.172 274.018 274.672 275.017 275.997C276.016 277.322 275.512 284.298 273.928 284.958C272.345 285.618 266.389 289.603 266.389 289.603C266.389 289.603 269.687 293.919 269.786 295.734C269.873 296.894 270.321 297.998 271.068 298.89C271.068 298.89 276.176 309.845 277.194 313.331C278.212 316.816 279.145 322.291 279.145 322.291C279.145 322.291 277.359 327.272 278.594 330.097C279.828 332.922 278.594 337.067 278.594 337.067C278.594 337.067 260.776 335.242 258.802 332.898C256.827 330.554 258.142 325.281 258.142 325.281C257.735 322.932 256.891 320.679 255.654 318.641C253.66 315.486 256.125 312.17 255.654 312.001C255.182 311.831 253.66 310.01 252.162 307.025C250.663 304.04 249.73 305.195 249.73 305.195C249.73 305.195 251.672 321.961 249.73 323.456C247.789 324.951 247.525 324.286 248.024 326.286C248.411 328.205 248.688 330.145 248.854 332.096C248.854 332.096 242.883 333.921 239.9 332.096C236.917 330.271 232.426 329.936 228.482 327.116C224.538 324.296 230.268 319.48 231.262 318.815C232.256 318.15 230.932 308.525 230.932 308.525L229.603 299.064C229.603 299.064 234.08 300.059 232.61 296.409C231.14 292.758 229.438 280.143 228.609 278.152C227.78 276.162 231.437 273.502 230.932 272.177C230.428 270.852 233.086 263.216 233.086 263.216C233.086 263.216 233.256 256.911 234.91 255.727C235.541 255.283 235.951 253.906 236.224 252.383C236.514 250.585 236.686 248.77 236.738 246.95C236.738 246.95 274.715 244.295 280.851 247.945C283.613 249.586 283.419 252.609 282.265 255.67C280.851 259.405 277.948 263.216 277.218 264.598C275.846 267.145 276.506 268.861 275.512 271.517Z" fill="#575988"/>
<path opacity="0.1" d="M282.218 255.67C277.505 256.995 271.228 258.943 270.206 260.061C268.547 261.891 262.906 249.77 262.906 249.77C262.906 249.77 263.241 258.882 255.776 255.071C249.316 251.77 238.887 252.204 236.191 252.383C236.481 250.585 236.653 248.77 236.705 246.95C236.705 246.95 274.682 244.295 280.818 247.945C283.58 249.586 283.386 252.609 282.218 255.67Z" fill="black"/>
<path d="M262.906 155.328C262.906 155.328 266.205 151.343 266.888 152.838C267.571 154.333 271.464 157.318 271.464 157.318C271.464 157.318 272.581 160.804 274.546 161.304C276.511 161.804 291.27 181.72 291.27 181.72L285.959 192.506L281.647 218.733C281.647 218.733 281.836 222.883 280.663 224.392C279.489 225.902 275.008 225.553 277.086 227.378C279.164 229.203 282.147 230.863 283.806 239.168C285.464 247.473 287.453 252.279 287.453 252.279C287.453 252.279 271.864 256.264 270.206 258.09C268.547 259.915 262.906 247.799 262.906 247.799C262.906 247.799 263.241 256.906 255.776 253.1C248.312 249.294 235.541 250.454 235.541 250.454V240.644C235.541 240.644 238.029 236.824 236.705 234.169C235.381 231.514 237.61 226.534 237.61 226.534C237.61 226.534 236.87 221.388 235.541 218.403C234.212 215.417 234.712 201.307 234.712 201.307C234.712 201.307 233.703 192.176 234.622 187.526C235.402 183.495 236.779 179.604 238.708 175.981C240.532 172.424 241.686 169.104 241.191 167.774C240.696 166.444 245.569 163.567 245.569 163.567L248.269 167.939L248.957 170.552C248.957 170.552 263.241 160.309 262.906 155.328Z" fill="#DCE6F2"/>
<path d="M286.775 178.4C286.775 178.4 296.063 187.526 297.057 189.021C298.051 190.516 301.383 198.288 297.071 200.646C292.759 203.004 275.865 206.641 274.188 205.386C272.51 204.132 262.407 206.801 262.407 206.801C262.407 206.801 245.508 210.951 249.155 204.146C252.803 197.34 261.431 198.486 261.431 198.486C261.431 198.486 275.371 198.463 276.86 197.071C278.349 195.68 289.583 192.695 287.038 186.545C284.494 180.395 286.775 178.4 286.775 178.4Z" fill="#FFC1C8"/>
<path opacity="0.1" d="M259.499 219.233C259.499 219.233 237.864 237.989 240.018 237.989C242.172 237.989 259.499 219.233 259.499 219.233Z" fill="black"/>
<path opacity="0.1" d="M273.928 226.868C273.928 226.868 267.053 228.524 268.382 229.524C269.711 230.523 273.928 226.868 273.928 226.868Z" fill="black"/>
<path opacity="0.1" d="M249.683 181.385C249.683 181.385 258.264 182.154 256.752 184.842C255.239 187.53 249.683 181.385 249.683 181.385Z" fill="black"/>
<path opacity="0.1" d="M244.334 261.999C244.334 261.999 243.17 265.376 244.334 267.187C245.498 268.998 244.334 273.318 244.334 273.318V288.41C244.334 288.41 244.174 299.366 248.147 303.181L244.334 261.999Z" fill="black"/>
<path opacity="0.1" d="M232.973 309.029C232.973 309.029 235.291 312.43 235.626 313.675C235.96 314.92 232.973 309.029 232.973 309.029Z" fill="black"/>
<path opacity="0.1" d="M233.552 302.224C233.552 302.224 238.944 301.229 239.773 301.809C240.602 302.389 233.552 302.224 233.552 302.224Z" fill="black"/>
<path opacity="0.1" d="M231.979 322.555C231.979 322.555 230.4 322.721 233.552 324.442C236.705 326.163 242.841 328.342 242.921 327.597C243.001 326.852 231.979 322.555 231.979 322.555Z" fill="black"/>
<path opacity="0.1" d="M255.055 306.039C255.611 306.039 262.553 305.624 262.152 306.704C261.752 307.784 255.055 306.039 255.055 306.039Z" fill="black"/>
<path opacity="0.1" d="M264.485 296.329C264.485 296.329 266.059 293.593 266.638 294.753C267.218 295.914 264.485 296.329 264.485 296.329Z" fill="black"/>
<path opacity="0.1" d="M259.499 142.212C259.502 144.249 259.219 146.277 258.66 148.235C257.746 149.065 256.167 149.075 255.041 148.457C253.722 147.73 252.859 146.41 252.002 145.155C251.144 143.901 250.168 142.646 248.764 142.109C246.988 141.439 244.961 142.109 243.415 143.222C241.87 144.335 240.635 145.806 239.174 146.995C237.713 148.183 235.852 149.145 233.991 148.853C232.789 148.669 231.724 147.99 230.692 147.334C229.278 146.443 227.761 145.056 226.21 144.457C224.66 143.858 223.383 144.929 221.908 144.929C220.735 145.353 219.458 146.32 219.693 147.542C219.819 147.995 220.023 148.423 220.296 148.806C220.77 149.739 220.957 150.793 220.834 151.832C220.71 152.872 220.282 153.852 219.604 154.649C217.65 151.823 216.389 148.577 215.92 145.172C215.452 141.768 215.791 138.301 216.908 135.052C218.026 131.803 219.891 128.862 222.354 126.468C224.817 124.073 227.808 122.292 231.086 121.268C234.364 120.244 237.836 120.006 241.223 120.573C244.609 121.14 247.815 122.497 250.581 124.532C253.347 126.568 255.596 129.227 257.146 132.293C258.696 135.36 259.504 138.748 259.504 142.184L259.499 142.212Z" fill="black"/>
<path d="M221.903 144.292C220.73 144.717 219.453 145.684 219.684 146.91C219.815 147.361 220.02 147.786 220.292 148.169C221.668 150.626 220.504 154.154 217.935 155.295C217.533 155.505 217.073 155.578 216.625 155.503C216.27 155.392 215.947 155.198 215.683 154.937C214.302 153.701 213.349 152.058 212.964 150.244C212.559 148.358 212.808 146.358 212.601 144.42C212.394 142.481 211.729 140.571 211.498 138.619C211.335 137.654 211.437 136.662 211.795 135.751C212.106 135.15 212.506 134.6 212.983 134.119C214.307 132.643 215.688 131.134 216.352 129.262C217.403 126.281 216.639 122.485 218.939 120.301C220.004 119.301 221.493 118.929 222.813 118.297C224.055 117.636 225.245 116.881 226.371 116.038C230.635 113.104 235.819 110.85 240.89 111.887C242.916 112.378 244.855 113.173 246.644 114.245C249.965 116.078 253.119 118.199 256.068 120.584C257.344 121.528 258.458 122.673 259.367 123.975C260.044 125.089 260.532 126.308 260.809 127.583C261.486 130.363 261.579 133.254 261.082 136.072C260.611 138.836 259.541 141.519 259.499 144.325C259.499 145.269 259.574 146.287 259.089 147.098C258.312 148.391 256.384 148.513 255.065 147.796C253.745 147.08 252.883 145.75 252.03 144.495C251.177 143.241 250.197 141.986 248.792 141.453C247.016 140.779 244.989 141.453 243.444 142.561C241.898 143.67 240.668 145.146 239.203 146.334C237.737 147.523 235.904 148.485 234.019 148.193C232.817 148.009 231.752 147.334 230.72 146.679C229.306 145.783 227.789 144.396 226.243 143.802C224.698 143.208 223.374 144.292 221.903 144.292Z" fill="#794F6A"/>
<path d="M272.194 178.4C272.194 178.4 247.817 200.972 252.789 212.258C257.76 223.543 279.649 203.627 279.649 203.627L287.453 185.554L272.194 178.4Z" fill="#F8BDC5"/>
<g opacity="0.1">
<path opacity="0.1" d="M217.926 153.956C217.525 154.166 217.067 154.239 216.621 154.163C216.264 154.054 215.94 153.858 215.678 153.593C214.297 152.358 213.343 150.717 212.954 148.905C212.554 146.995 212.804 145.014 212.596 143.076C212.389 141.137 211.72 139.232 211.494 137.275C211.494 137.18 211.494 137.081 211.47 136.982C211.419 137.522 211.427 138.066 211.494 138.605C211.72 140.557 212.389 142.444 212.596 144.406C212.804 146.367 212.554 148.325 212.954 150.23C213.342 152.044 214.296 153.687 215.678 154.923C215.942 155.185 216.265 155.379 216.621 155.489C217.067 155.564 217.525 155.491 217.926 155.281C219.952 154.38 221.098 152.008 220.829 149.839C220.731 150.714 220.413 151.55 219.906 152.27C219.398 152.99 218.717 153.57 217.926 153.956Z" fill="black"/>
<path opacity="0.1" d="M261.049 134.737C260.578 137.501 259.508 140.185 259.471 142.991C259.471 143.934 259.546 144.953 259.056 145.764C258.283 147.056 256.356 147.179 255.036 146.462C253.717 145.745 252.855 144.42 251.997 143.16C251.139 141.901 250.168 140.651 248.759 140.118C246.988 139.449 244.961 140.118 243.416 141.231C241.87 142.345 240.635 143.811 239.174 145.004C237.713 146.198 235.852 147.155 233.991 146.867C232.789 146.679 231.724 146.004 230.692 145.349C229.278 144.453 227.761 143.071 226.215 142.472C224.67 141.873 223.388 142.943 221.913 142.943C220.739 143.373 219.462 144.335 219.688 145.566C219.717 145.699 219.76 145.828 219.816 145.952C220.277 145.147 221.027 144.548 221.913 144.273C223.383 144.273 224.684 143.217 226.215 143.802C227.747 144.387 229.292 145.783 230.692 146.679C231.715 147.334 232.78 148.009 233.991 148.193C235.876 148.485 237.723 147.537 239.174 146.334C240.626 145.132 241.875 143.646 243.416 142.561C244.956 141.477 246.988 140.779 248.759 141.453C250.173 141.986 251.144 143.255 251.997 144.495C252.85 145.735 253.717 147.051 255.036 147.796C256.356 148.542 258.283 148.391 259.056 147.098C259.527 146.287 259.457 145.273 259.471 144.325C259.508 141.519 260.564 138.836 261.049 136.072C261.298 134.653 261.399 133.211 261.351 131.771C261.321 132.766 261.22 133.757 261.049 134.737Z" fill="black"/>
</g>
<path opacity="0.1" d="M243.006 63.5367C243.006 63.5367 234.052 79.8029 246.304 88.1034C258.557 96.404 259.739 95.5739 259.739 95.5739C259.739 95.5739 259.57 97.5641 259.739 98.0641C259.909 98.564 263.038 99.7194 263.038 99.7194C263.038 99.7194 266.85 105.851 272.322 108.52C277.793 111.189 278.792 117.481 278.792 117.481C278.792 117.481 278.792 119.641 281.619 121.631C284.447 123.621 286.624 129.432 286.624 129.432V134.747C286.624 135.577 287.618 138.048 285.465 138.312C283.311 138.576 285.13 143.542 285.13 143.542C285.13 143.542 282.811 146.372 283.306 147.693C283.801 149.013 282.312 151.673 282.312 151.673C282.312 151.673 280.488 154.328 280.653 154.828C280.818 155.328 278.665 157.153 279.159 158.314C279.654 159.474 276.676 160.969 277.171 162.299C277.665 163.629 275.05 164.289 275.05 164.289L267.882 180.89C267.882 180.89 282.962 184.191 286.855 192.506L305.865 157.649C305.865 157.649 316.477 131.592 316.812 129.931C317.146 128.271 314.488 122.296 314.488 122.296L301.553 98.7149L282.147 71.3279C282.147 71.3279 266.723 38.4748 243.006 63.5367Z" fill="black"/>
<path opacity="0.1" d="M262.152 70.3988C262.152 70.3988 238.854 78.5814 251.125 86.882C263.396 95.1825 264.56 94.3477 264.56 94.3477C264.56 94.3477 264.395 96.3427 264.56 96.8379C264.725 97.3331 267.859 98.498 267.859 98.498C267.859 98.498 271.676 104.629 277.147 107.298C282.618 109.968 283.617 116.259 283.617 116.259C283.617 116.259 283.617 118.419 286.445 120.409C289.272 122.4 291.421 128.21 291.421 128.21V133.521C291.421 134.351 292.415 136.822 290.257 137.091C288.099 137.36 289.927 142.321 289.927 142.321C289.927 142.321 287.604 145.151 288.103 146.466C288.603 147.782 287.109 150.452 287.109 150.452C287.109 150.452 285.285 153.107 285.45 153.607C285.615 154.107 283.457 155.932 283.956 157.092C284.456 158.252 281.468 159.747 281.968 161.077C282.467 162.407 279.843 163.068 279.843 163.068L272.68 179.664C272.68 179.664 285.102 180.305 289.022 188.625L310.657 156.446C310.657 156.446 321.274 130.389 321.604 128.729C321.934 127.069 319.29 121.074 319.29 121.074L306.355 97.4934L276.845 80.4585C276.845 80.4585 285.87 45.3322 262.152 70.3988Z" fill="black"/>
<path d="M244.334 63.5367C244.334 63.5367 235.381 79.8029 247.633 88.1034C259.885 96.404 261.068 95.5739 261.068 95.5739C261.068 95.5739 260.903 97.5641 261.068 98.0641C261.233 98.564 264.367 99.7195 264.367 99.7195C264.367 99.7195 268.184 105.851 273.655 108.52C279.126 111.189 280.125 117.481 280.125 117.481C280.125 117.481 280.125 119.641 282.953 121.631C285.78 123.621 287.953 129.432 287.953 129.432V134.747C287.953 135.577 288.947 138.048 286.789 138.312C284.63 138.576 286.459 143.542 286.459 143.542C286.459 143.542 284.136 146.372 284.635 147.693C285.135 149.013 283.641 151.673 283.641 151.673C283.641 151.673 281.817 154.328 281.982 154.828C282.147 155.328 279.989 157.153 280.488 158.314C280.988 159.474 278 160.969 278.5 162.299C278.999 163.629 276.374 164.289 276.374 164.289L269.211 180.89C269.211 180.89 284.263 184.191 288.179 192.506L307.189 157.649C307.189 157.649 317.806 131.592 318.136 129.931C318.466 128.271 315.813 122.296 315.813 122.296L302.877 98.7149L283.476 71.3373C283.476 71.3373 268.047 38.4748 244.334 63.5367Z" fill="#6C63FF"/>
<g opacity="0.1">
<path opacity="0.1" d="M146.377 71.7052C146.203 69.6439 145.759 67.6143 145.058 65.6684C144.374 63.782 143.441 61.9238 143.22 59.9194C143.22 59.8581 143.22 59.8015 143.22 59.7402C143.17 60.242 143.17 60.7475 143.22 61.2494C143.441 63.2537 144.374 65.0978 145.058 66.9984C145.759 68.9427 146.203 70.9707 146.377 73.0304C146.443 73.8039 146.472 74.5868 146.481 75.3885C146.495 74.1388 146.481 72.9173 146.377 71.7052Z" fill="black"/>
<path opacity="0.1" d="M162.597 92.3716C161.584 94.5977 158.507 94.9514 156.151 94.2958C154.139 93.7189 152.294 92.6725 150.765 91.2426C149.236 89.8128 148.068 88.0402 147.357 86.0708C146.702 84.044 146.384 81.9234 146.415 79.7935C146.387 82.3921 146.486 84.9577 147.357 87.396C148.068 89.3662 149.236 91.1395 150.764 92.5701C152.293 94.0008 154.139 95.0481 156.151 95.6258C158.507 96.2766 161.584 95.9276 162.597 93.6969C163.026 92.7536 162.984 91.6595 162.965 90.5842C162.956 91.1979 162.832 91.8043 162.597 92.3716Z" fill="black"/>
<path opacity="0.1" d="M208.383 61.3673C208.181 62.8764 207.582 64.5743 206.145 65.0789C205.307 65.3131 204.413 65.2291 203.633 64.8431C201.277 63.815 199.18 61.3343 196.664 61.9332C194.609 62.4048 193.624 64.7299 193.082 66.7767C192.689 68.0701 192.519 69.4209 192.578 70.7714C192.668 69.8686 192.837 68.9754 193.082 68.102C193.624 66.0599 194.609 63.7489 196.664 63.2585C199.18 62.6642 201.258 65.1449 203.633 66.1684C204.412 66.5577 205.307 66.6434 206.145 66.4089C207.582 65.9042 208.181 64.2064 208.383 62.6925C208.513 61.7283 208.56 60.7548 208.525 59.7826C208.501 60.3108 208.454 60.8438 208.383 61.3673Z" fill="black"/>
<path opacity="0.1" d="M195.401 80.5811C193.987 81.6045 192.069 80.5151 190.519 79.6992C188.86 78.8267 186.749 78.2843 185.17 79.2888C184.628 79.6284 184.19 80.1189 183.662 80.482C182.576 81.1543 181.288 81.4216 180.024 81.2366C177.022 80.9301 175.901 79.0295 173.615 77.558C171.937 76.478 168.431 76.0158 167.432 78.2324C167.193 78.885 167.126 79.5886 167.239 80.2745C167.27 80.0293 167.335 79.7896 167.432 79.5624C168.436 77.3411 171.937 77.8032 173.615 78.888C175.901 80.3594 177.022 82.2601 180.024 82.5666C181.288 82.7477 182.576 82.479 183.662 81.8073C184.19 81.4489 184.628 80.9584 185.17 80.6188C186.763 79.6284 188.86 80.1472 190.519 81.0291C192.069 81.8403 193.978 82.9156 195.401 81.9063C196.23 81.3121 196.428 80.2557 196.244 79.2134C196.147 79.7602 195.846 80.2494 195.401 80.5811Z" fill="black"/>
<path opacity="0.1" d="M167.117 82.8732C166.471 84.3541 164.487 84.7596 163.573 86.0943C162.89 87.0847 162.946 88.3204 162.97 89.5608C162.961 88.8053 163.17 88.0635 163.573 87.4243C164.487 86.0896 166.471 85.6793 167.117 84.1984C167.342 83.5541 167.404 82.8635 167.296 82.1893C167.267 82.4242 167.206 82.6542 167.117 82.8732Z" fill="black"/>
</g>
</g>
<defs>
<linearGradient id="paint0_linear" x1="243.105" y1="370.378" x2="243.105" y2="34.2066" gradientUnits="userSpaceOnUse">
<stop stop-color="#808080" stop-opacity="0.25"/>
<stop offset="0.54" stop-color="#808080" stop-opacity="0.12"/>
<stop offset="1" stop-color="#808080" stop-opacity="0.1"/>
</linearGradient>
<clipPath id="clip0">
<rect width="517" height="373" fill="white"/>
</clipPath>
</defs>
</svg>
